# xmcd
#
# Track frame offsets: 
#        183
#        14068
#        27968
#        43525
#        66695
#        83305
#        105245
#        122965
#        138053
#        154283
#        171393
#
# Disc length: 2474 seconds
#
# Revision: 5
# Processed by: cddbd v1.5.2PL0 Copyright (c) Steve Scherf et al.
# Submitted via: ExactAudioCopy v0.99pb5
#
DISCID=8e09a80b
DTITLE=Dan Seals - The Best
DYEAR=1987
DGENRE=Country
TTITLE0=Three Time Loser
TTITLE1=God Must Be A Cowboy
TTITLE2=My Baby's Got Good Timing
TTITLE3=You Still Move Me
TTITLE4=Bop
TTITLE5=Everything That Glitters (Is Not Gold)
TTITLE6=Meet Me In Montana
TTITLE7=(You Bring Out) The Wild Side Of Me
TTITLE8=My Old Yellow Car
TTITLE9=I Will Be There
TTITLE10=One Friend
EXTD=
EXTT0=
EXTT1=
EXTT2=
EXTT3=
EXTT4=
EXTT5=
EXTT6=
EXTT7=
EXTT8=
EXTT9=
EXTT10=
PLAYORDER=
